<?xml version="1.0" encoding="utf-8"?>
<!-- Generator: Adobe Illustrator 24.3.0, SVG Export Plug-In . SVG Version: 6.00 Build 0)  -->
<svg version="1.1" id="Layer_1" xmlns="http://www.w3.org/2000/svg" xmlns:xlink="http://www.w3.org/1999/xlink" x="0px" y="0px"
	 viewBox="0 0 378.28 74.14" style="enable-background:new 0 0 378.28 74.14;" xml:space="preserve">
<style type="text/css">
	.st0{fill:#C31200;}
	.st1{fill:#FFFFFF;}
</style>
<g>
	<g>
		<path class="st0" d="M18.44,28.43c-2.22,4.16-2.95,8.97-1.71,14.05c1.28,5.19,4.12,7.91,7.5,8.16c1.67,0.11,3.34,0.22,5.01,0.32
			H49.8l0.65,1.66l3,7.57l2.66,6.73H35.68c-3.62,0-7.24,0.01-10.86,0.02c-6.06,0.03-11.64-2.25-16.13-8.9
			c-7.03-10.41-6.76-28.23,0.55-40C14.52,9.52,21.1,5.63,28.32,4.69h27.25c0.45,0.24,0.88,0.65,1.05,1.12
			c1.64,4.63,3.13,9.39,4.86,14.7h-2.25c-9.78,0-19.57-0.07-29.35,0.05C25.4,20.63,21.41,22.86,18.44,28.43z"/>
		<path class="st1" d="M108.05,5.06c-0.01,0.47-0.26,0.9-0.49,1.28C103.99,12.34,100.5,18.41,97,24.5
			c-4.43,7.71-8.86,15.42-13.29,23.12c-2.48,4.31-4.97,8.63-7.45,12.93c-2.52,4.38-5.4,7.71-9.45,7.54
			c-2.63-0.11-4.91-1.55-6.17-5.15c-2.09-6.02-4.15-12.09-6.18-18.15c-1.86-5.55-3.7-11.13-5.58-16.67c-0.03-0.1-0.07-0.2-0.07-0.33
			c-0.01-0.1,0-0.19,0.02-0.29c0.02-0.19,0.07-0.32,0.14-0.4c0.13-0.15,0.31-0.15,0.53-0.15c1.81-0.01,3.63,0,5.45,0
			c2.2,0,4.42,0.01,6.62,0.06c0.58,0.02,1.23-0.06,1.76,0.42c0.55,0.49,0.87,1.66,1.2,2.49c0.87,2.22,1.57,4.61,2.32,6.92
			c0.49,1.51,0.99,3.01,1.5,4.5c0.44,1.26,0.81,2.81,1.37,3.94c0.41,0.82,0.79-0.47,1.04-0.93c0.32-0.56,0.64-1.11,0.96-1.67
			c0.63-1.1,1.26-2.19,1.89-3.28c1.22-2.13,2.44-4.25,3.67-6.39c5.01-8.75,10.03-17.48,14.98-26.3c0.45-0.8,1.01-1.6,1.79-2.05
			h13.89C108.02,4.79,108.06,4.92,108.05,5.06z"/>
	</g>
	<g>
		<path class="st1" d="M127.34,15.78c1.91,0,3.99,0.3,6.23,0.89c2.24,0.59,4.19,1.34,5.84,2.25v7.82c-1.43-1.26-3.28-2.31-5.54-3.14
			c-2.26-0.83-4.44-1.24-6.53-1.24c-4.12,0-7.43,1.4-9.92,4.2c-2.5,2.8-3.75,6.12-3.75,9.95c0,3.83,1.25,7.15,3.75,9.95
			c2.5,2.8,5.81,4.2,9.92,4.2c2.17,0,4.38-0.36,6.64-1.1c2.26-0.73,4.07-1.69,5.43-2.87v7.76c-1.54,0.87-3.44,1.55-5.68,2.04
			c-2.24,0.49-4.37,0.74-6.4,0.74c-2.98,0-5.73-0.57-8.24-1.72c-2.52-1.14-4.6-2.67-6.26-4.59c-1.65-1.91-2.95-4.13-3.89-6.63
			c-0.94-2.51-1.41-5.1-1.41-7.79c0-2.68,0.47-5.28,1.41-7.79c0.94-2.51,2.23-4.72,3.89-6.63c1.65-1.91,3.74-3.44,6.26-4.59
			C121.62,16.36,124.37,15.78,127.34,15.78z"/>
		<path class="st1" d="M144.6,15.78h14.34c3.45,0,6.51,0.94,9.18,2.81c2.66,1.88,4.7,4.38,6.12,7.52c1.41,3.14,2.12,6.6,2.12,10.39
			s-0.71,7.25-2.12,10.39c-1.42,3.14-3.46,5.65-6.12,7.52c-2.67,1.88-5.73,2.81-9.18,2.81H144.6V15.78z M150.72,22.36v28.31h9.59
			c3.05,0,5.47-1.34,7.25-4.03c1.78-2.68,2.67-6.06,2.67-10.13c0-4.07-0.89-7.44-2.67-10.13c-1.78-2.68-4.2-4.03-7.25-4.03H150.72z"
			/>
		<path class="st1" d="M181.43,15.78h6.12v17.47h2.54l13.51-17.47h8.44l-16.49,20.73l16.49,20.73h-8.44l-13.51-17.47h-2.54v17.47
			h-6.12V15.78z"/>
		<path class="st1" d="M211.26,41.78c-0.04-5.76,1.76-10.07,5.4-12.91c2.94-2.29,6.19-3.06,9.76-2.31c3.64,0.71,6.34,2.76,8.11,6.16
			c1.73,3.36,2.15,7.46,1.27,12.32h-17.92c0.55,1.7,1.52,3.05,2.92,4.06c1.4,1.01,3.12,1.53,5.18,1.57
			c2.98,0.08,5.73-0.67,8.27-2.25v7.22c-2.43,1.07-5.18,1.6-8.27,1.6c-4.3,0-7.82-1.47-10.56-4.41c-2.74-2.94-4.13-6.58-4.16-10.93
			V41.78z M217.6,39.06l12.52-0.47c-0.33-1.82-1.09-3.23-2.29-4.23c-1.2-1.01-2.47-1.51-3.83-1.51c-1.36,0-2.67,0.54-3.91,1.63
			C218.83,35.55,218.01,37.08,217.6,39.06z"/>
		<path class="st1" d="M259.4,26.32h6.56l-10.59,30.08c-0.07,0.24-0.2,0.61-0.39,1.12c-0.33,0.99-0.6,1.75-0.8,2.28
			c-0.2,0.53-0.51,1.27-0.91,2.22c-0.4,0.95-0.77,1.68-1.1,2.19c-0.33,0.51-0.78,1.13-1.35,1.87c-0.57,0.73-1.13,1.27-1.68,1.63
			c-0.55,0.36-1.24,0.72-2.07,1.1c-0.83,0.37-1.69,0.58-2.59,0.62c-0.9,0.04-1.94-0.01-3.12-0.15c-1.18-0.14-2.43-0.42-3.75-0.86
			V61.8c1.76,0.51,3.26,0.78,4.49,0.8c1.23,0.02,2.25-0.22,3.06-0.71c0.81-0.49,1.45-1.1,1.93-1.81c0.48-0.71,0.94-1.66,1.38-2.84
			l-10.86-30.91h6.62l7.55,21.56L259.4,26.32z"/>
		<path class="st0" d="M266.73,15.78h6.62l10.64,31.68l10.7-31.68h6.56L287.3,57.24h-6.62L266.73,15.78z"/>
		<path class="st0" d="M302.35,28.63c2.9-1.22,5.66-1.96,8.27-2.22c2.61-0.26,4.92-0.01,6.92,0.74c2,0.75,3.59,2.12,4.77,4.12
			c1.18,1.99,1.76,4.53,1.76,7.61v18.36h-6.12v-3.49c-2.43,2.17-5.5,3.26-9.21,3.26c-3.6,0-6.21-1.42-7.83-4.26
			c-1.43-2.53-1.64-5.25-0.61-8.17c1.18-3.24,3.55-5.43,7.11-6.57c0.84-0.24,1.73-0.43,2.65-0.59l7.61-0.83
			c-0.52-1.62-1.57-2.7-3.17-3.26c-1.6-0.55-3.46-0.59-5.6-0.12c-2.13,0.47-4.32,1.36-6.56,2.67V28.63z M317.95,46.7v-3.79
			l-6.56,1.01c-2.9,0.43-4.71,1.46-5.4,3.08c-0.48,1.18-0.13,2.15,1.05,2.9c0.85,0.51,1.97,0.73,3.36,0.65
			c1.58-0.08,3.04-0.46,4.38-1.15C316.12,48.7,317.18,47.8,317.95,46.7z"/>
		<path class="st0" d="M350.93,36.15c-1.1-0.95-2.93-1.77-5.49-2.46c-2.56-0.69-4.91-0.96-7.06-0.8c-2.15,0.16-3.23,0.81-3.23,1.95
			c0,0.59,0.39,1.16,1.16,1.72c0.77,0.55,1.75,1.04,2.92,1.45c1.18,0.41,2.44,0.94,3.8,1.57c1.36,0.63,2.62,1.3,3.78,2.01
			c1.16,0.71,2.13,1.69,2.92,2.93c0.79,1.24,1.19,2.64,1.19,4.17c0,2.33-0.76,4.2-2.29,5.63c-1.53,1.42-3.41,2.3-5.65,2.64
			c-2.24,0.34-4.62,0.3-7.14-0.12c-2.52-0.41-4.79-1.17-6.81-2.28v-7.22c1.1,0.99,2.92,1.82,5.46,2.49c2.54,0.67,4.89,0.94,7.06,0.8
			c2.17-0.14,3.25-0.78,3.25-1.92c0-0.63-0.4-1.21-1.19-1.75c-0.79-0.53-1.76-1.01-2.92-1.42c-1.16-0.41-2.42-0.94-3.78-1.57
			c-1.36-0.63-2.63-1.31-3.8-2.04c-1.18-0.73-2.15-1.71-2.92-2.93c-0.77-1.22-1.16-2.61-1.16-4.15c0-2.33,0.76-4.21,2.29-5.66
			c1.52-1.44,3.41-2.33,5.65-2.66c2.24-0.34,4.62-0.3,7.14,0.12c2.52,0.41,4.79,1.18,6.81,2.28V36.15z"/>
		<path class="st0" d="M365.04,44.21c0,1.42,0.16,2.59,0.47,3.49c0.31,0.91,0.84,1.62,1.57,2.13c0.73,0.51,1.73,0.74,2.98,0.68
			c1.25-0.06,2.79-0.38,4.63-0.98v6.57c-2.1,0.71-3.99,1.09-5.68,1.13c-1.69,0.04-3.09-0.2-4.19-0.71c-1.1-0.51-2.05-1.18-2.84-2.01
			c-0.79-0.83-1.41-1.84-1.85-3.05c-0.44-1.2-0.75-2.39-0.94-3.55c-0.18-1.16-0.28-2.42-0.28-3.76V32.9h-4.85v-6.57
			c1.99-0.28,3.56-1.04,4.74-2.28c1.18-1.24,2.02-3.19,2.54-5.83h3.69v8.11h9.65v6.57h-9.65V44.21z"/>
	</g>
</g>
</svg>
